<svg width="154" height="81" viewBox="0 0 154 81" fill="none" xmlns="http://www.w3.org/2000/svg">
<path d="M10.918 41.8809H27.0918V48H3.30078V11.0312H10.918V41.8809ZM46.9219 48C46.5833 47.3398 46.3379 46.5189 46.1855 45.5371C44.4082 47.5176 42.0977 48.5078 39.2539 48.5078C36.5625 48.5078 34.3281 47.7292 32.5508 46.1719C30.7904 44.6146 29.9102 42.651 29.9102 40.2812C29.9102 37.3698 30.985 35.1354 33.1348 33.5781C35.3014 32.0208 38.4245 31.2337 42.5039 31.2168H45.8809V29.6426C45.8809 28.373 45.5508 27.3574 44.8906 26.5957C44.2474 25.834 43.2233 25.4531 41.8184 25.4531C40.5827 25.4531 39.6094 25.7493 38.8984 26.3418C38.2044 26.9342 37.8574 27.7467 37.8574 28.7793H30.5195C30.5195 27.1882 31.0104 25.7155 31.9922 24.3613C32.974 23.0072 34.362 21.9492 36.1562 21.1875C37.9505 20.4089 39.9648 20.0195 42.1992 20.0195C45.5846 20.0195 48.2676 20.8743 50.248 22.584C52.2454 24.2767 53.2441 26.6634 53.2441 29.7441V41.6523C53.2611 44.2591 53.625 46.2311 54.3359 47.5684V48H46.9219ZM40.8535 42.8965C41.9368 42.8965 42.9355 42.6595 43.8496 42.1855C44.7637 41.6947 45.4408 41.043 45.8809 40.2305V35.5078H43.1387C39.4655 35.5078 37.5104 36.7773 37.2734 39.3164L37.248 39.748C37.248 40.6621 37.5697 41.4154 38.2129 42.0078C38.8561 42.6003 39.7363 42.8965 40.8535 42.8965ZM83.6367 34.5176C83.6367 38.9186 82.6973 42.3548 80.8184 44.8262C78.9395 47.2806 76.3158 48.5078 72.9473 48.5078C69.9681 48.5078 67.5898 47.3652 65.8125 45.0801L65.4824 48H58.8809V9H66.2188V22.9902C67.9115 21.0098 70.1374 20.0195 72.8965 20.0195C76.248 20.0195 78.8717 21.2552 80.7676 23.7266C82.6803 26.181 83.6367 29.6426 83.6367 34.1113V34.5176ZM76.2988 33.9844C76.2988 31.2083 75.8587 29.1855 74.9785 27.916C74.0983 26.6296 72.7865 25.9863 71.043 25.9863C68.707 25.9863 67.099 26.9427 66.2188 28.8555V39.6973C67.1159 41.627 68.7409 42.5918 71.0938 42.5918C73.4635 42.5918 75.0208 41.4238 75.7656 39.0879C76.1211 37.9707 76.2988 36.2695 76.2988 33.9844Z" fill="#323232"/>
<path d="M17.9844 68.1558H7.81689V76.4702H19.6279V79H4.72314V55.5391H19.4668V58.085H7.81689V65.626H17.9844V68.1558ZM36.4341 72.877H26.605L24.3975 79H21.207L30.166 55.5391H32.873L41.8481 79H38.6738L36.4341 72.877ZM27.5396 70.3311H35.5156L31.5195 59.3579L27.5396 70.3311ZM53.6108 69.5093H48.1001V79H44.9902V55.5391H52.7568C55.3994 55.5391 57.4297 56.1406 58.8477 57.3438C60.2764 58.5469 60.9907 60.2979 60.9907 62.5967C60.9907 64.0576 60.5933 65.3306 59.7983 66.4155C59.0142 67.5005 57.9185 68.3115 56.5112 68.8486L62.022 78.8066V79H58.7026L53.6108 69.5093ZM48.1001 66.9795H52.8535C54.3896 66.9795 55.6089 66.582 56.5112 65.7871C57.4243 64.9922 57.8809 63.9287 57.8809 62.5967C57.8809 61.1465 57.4458 60.0347 56.5757 59.2612C55.7163 58.4878 54.4702 58.0957 52.8374 58.085H48.1001V66.9795ZM82.6631 75.9224C81.8682 77.061 80.7563 77.915 79.3276 78.4844C77.9097 79.043 76.2554 79.3223 74.3647 79.3223C72.4526 79.3223 70.7554 78.8765 69.2729 77.9849C67.7905 77.0825 66.6411 75.8042 65.8247 74.1499C65.019 72.4956 64.6055 70.5781 64.584 68.3975V66.3511C64.584 62.8169 65.4058 60.0776 67.0493 58.1333C68.7036 56.189 71.0239 55.2168 74.0103 55.2168C76.4595 55.2168 78.4307 55.8452 79.9238 57.1021C81.417 58.3481 82.3301 60.1206 82.6631 62.4194H79.5693C78.9893 59.3149 77.1416 57.7627 74.0264 57.7627C71.9531 57.7627 70.3794 58.4932 69.3052 59.9541C68.2417 61.4043 67.7046 63.5098 67.6938 66.2705V68.188C67.6938 70.8198 68.2954 72.9146 69.4985 74.4722C70.7017 76.019 72.3291 76.7925 74.3809 76.7925C75.541 76.7925 76.5562 76.6636 77.4263 76.4058C78.2964 76.1479 79.0161 75.7129 79.5854 75.1006V69.8315H74.1553V67.3179H82.6631V75.9224Z" fill="#323232"/>
<g clip-path="url(#clip0)">
<path d="M87.3212 33.1704L110.799 9.57354C111.232 9.1376 111.944 9.1376 112.376 9.57354L117.122 14.3407C117.555 14.7767 117.555 15.4938 117.122 15.9298L115.559 17.4907L149.394 51.5079C154.81 56.9501 155.689 65.8517 150.706 71.6876C147.831 75.0626 143.797 76.7501 139.763 76.736C136.078 76.736 132.393 75.3298 129.587 72.5032L95.2076 37.9517L93.6443 39.5126C93.2116 39.9485 92.4997 39.9485 92.067 39.5126L87.3212 34.7454C86.8885 34.3235 86.8885 33.6063 87.3212 33.1704ZM109.613 43.0001H131.527L110.869 22.2298L99.9116 33.2407L109.613 43.0001Z" fill="#323232"/>
</g>
<defs>
<clipPath id="clip0">
<rect width="67" height="72" fill="white" transform="matrix(-1 0 0 1 154 7)"/>
</clipPath>
</defs>
</svg>
