<svg width="203" height="45" viewBox="0 0 203 45" fill="none" xmlns="http://www.w3.org/2000/svg">
<path d="M10.0781 38.3516H25.0078V44H3.04688V9.875H10.0781V38.3516ZM43.3125 44C43 43.3906 42.7734 42.6328 42.6328 41.7266C40.9922 43.5547 38.8594 44.4688 36.2344 44.4688C33.75 44.4688 31.6875 43.75 30.0469 42.3125C28.4219 40.875 27.6094 39.0625 27.6094 36.875C27.6094 34.1875 28.6016 32.125 30.5859 30.6875C32.5859 29.25 35.4688 28.5234 39.2344 28.5078H42.3516V27.0547C42.3516 25.8828 42.0469 24.9453 41.4375 24.2422C40.8438 23.5391 39.8984 23.1875 38.6016 23.1875C37.4609 23.1875 36.5625 23.4609 35.9062 24.0078C35.2656 24.5547 34.9453 25.3047 34.9453 26.2578H28.1719C28.1719 24.7891 28.625 23.4297 29.5312 22.1797C30.4375 20.9297 31.7188 19.9531 33.375 19.25C35.0312 18.5312 36.8906 18.1719 38.9531 18.1719C42.0781 18.1719 44.5547 18.9609 46.3828 20.5391C48.2266 22.1016 49.1484 24.3047 49.1484 27.1484V38.1406C49.1641 40.5469 49.5 42.3672 50.1562 43.6016V44H43.3125ZM37.7109 39.2891C38.7109 39.2891 39.6328 39.0703 40.4766 38.6328C41.3203 38.1797 41.9453 37.5781 42.3516 36.8281V32.4688H39.8203C36.4297 32.4688 34.625 33.6406 34.4062 35.9844L34.3828 36.3828C34.3828 37.2266 34.6797 37.9219 35.2734 38.4688C35.8672 39.0156 36.6797 39.2891 37.7109 39.2891ZM77.2031 31.5547C77.2031 35.6172 76.3359 38.7891 74.6016 41.0703C72.8672 43.3359 70.4453 44.4688 67.3359 44.4688C64.5859 44.4688 62.3906 43.4141 60.75 41.3047L60.4453 44H54.3516V8H61.125V20.9141C62.6875 19.0859 64.7422 18.1719 67.2891 18.1719C70.3828 18.1719 72.8047 19.3125 74.5547 21.5938C76.3203 23.8594 77.2031 27.0547 77.2031 31.1797V31.5547ZM70.4297 31.0625C70.4297 28.5 70.0234 26.6328 69.2109 25.4609C68.3984 24.2734 67.1875 23.6797 65.5781 23.6797C63.4219 23.6797 61.9375 24.5625 61.125 26.3281V36.3359C61.9531 38.1172 63.4531 39.0078 65.625 39.0078C67.8125 39.0078 69.25 37.9297 69.9375 35.7734C70.2656 34.7422 70.4297 33.1719 70.4297 31.0625Z" fill="#323232"/>
<path d="M101.156 27.6406H85.1953V41.5625H103.547V44H82.3125V9.875H103.43V12.3359H85.1953V25.2031H101.156V27.6406ZM128.062 34.4375H112.57L109.055 44H106.031L118.945 9.875H121.688L134.602 44H131.602L128.062 34.4375ZM113.461 31.9766H127.148L120.305 13.3906L113.461 31.9766ZM152.391 29.7969H142.477V44H139.57V9.875H150.656C154.297 9.875 157.141 10.7578 159.188 12.5234C161.234 14.2891 162.258 16.7578 162.258 19.9297C162.258 22.1172 161.617 24.0469 160.336 25.7188C159.055 27.3906 157.336 28.5469 155.18 29.1875L163.711 43.6953V44H160.641L152.391 29.7969ZM142.477 27.3359H151.312C153.734 27.3359 155.68 26.6484 157.148 25.2734C158.617 23.8984 159.352 22.1172 159.352 19.9297C159.352 17.5234 158.586 15.6563 157.055 14.3281C155.523 13 153.375 12.3359 150.609 12.3359H142.477V27.3359ZM194.742 39.9453C193.742 41.3672 192.172 42.4766 190.031 43.2734C187.906 44.0703 185.523 44.4688 182.883 44.4688C180.211 44.4688 177.836 43.8281 175.758 42.5469C173.68 41.2656 172.07 39.4531 170.93 37.1094C169.789 34.7656 169.211 32.0781 169.195 29.0469V24.7344C169.195 20 170.391 16.2656 172.781 13.5312C175.172 10.7813 178.383 9.40625 182.414 9.40625C185.93 9.40625 188.758 10.3047 190.898 12.1016C193.039 13.8828 194.312 16.3438 194.719 19.4844H191.836C191.414 16.9844 190.391 15.0938 188.766 13.8125C187.156 12.5156 185.047 11.8672 182.438 11.8672C179.25 11.8672 176.727 13 174.867 15.2656C173.008 17.5312 172.078 20.7266 172.078 24.8516V28.8828C172.078 31.4766 172.516 33.7734 173.391 35.7734C174.281 37.7578 175.547 39.2969 177.188 40.3906C178.844 41.4844 180.742 42.0312 182.883 42.0312C185.367 42.0312 187.5 41.6406 189.281 40.8594C190.438 40.3438 191.297 39.7422 191.859 39.0547V30.2422H182.695V27.8047H194.742V39.9453Z" fill="#323232"/>
</svg>
